HIERARCHY
ROOT stdjntHead
{
  OFFSET -3.76916 154.527 5.90618
  CHANNELS 6 Xposition Yposition Zposition Zrotation Xrotation Yrotation
  JOINT stdjntChest
  {
    OFFSET 14.8128 -0.289386 1.69543
    CHANNELS 6 Xposition Yposition Zposition Zrotation Xrotation Yrotation
    JOINT stdjntShoulderRotLf
    {
      OFFSET -8.1726 0.0490028 1.55998
      CHANNELS 6 Xposition Yposition Zposition Zrotation Xrotation Yrotation
      JOINT stdjntArmLoTpLf
      {
        OFFSET -12.1873 -24.3808 -1.04001
        CHANNELS 6 Xposition Yposition Zposition Zrotation Xrotation Yrotation
        JOINT stdjntHandLf
        {
          OFFSET -17.9305 -16.769 -11.8883
          CHANNELS 6 Xposition Yposition Zposition Zrotation Xrotation Yrotation
          End Site
          {
            OFFSET 0 0 0
          }
        }
      }
    }
    JOINT stdjntShoulderRotRt
    {
      OFFSET 8.00669 0.606909 2.17868
      CHANNELS 6 Xposition Yposition Zposition Zrotation Xrotation Yrotation
      JOINT stdjntArmLoTpRt
      {
        OFFSET -11.736 -24.6011 -1.04252
        CHANNELS 6 Xposition Yposition Zposition Zrotation Xrotation Yrotation
        JOINT stdjntHandCRt
        {
          OFFSET -5.5598 -28.2291 0.12987
          CHANNELS 6 Xposition Yposition Zposition Zrotation Xrotation Yrotation
          End Site
          {
            OFFSET 0 0 0
          }
        }
      }
    }
    JOINT stdjntHips
    {
      OFFSET 1.13347 -33.8911 0.918027
      CHANNELS 6 Xposition Yposition Zposition Zrotation Xrotation Yrotation
      JOINT stdjntLegUpLf
      {
        OFFSET 6.31117 -11.4237 0.777569
        CHANNELS 6 Xposition Yposition Zposition Zrotation Xrotation Yrotation
        JOINT stdjntLegLoLf
        {
          OFFSET 40.8779 7.92099 12.3809
          CHANNELS 6 Xposition Yposition Zposition Zrotation Xrotation Yrotation
          JOINT stdjntLegEndLf
          {
            OFFSET 38.9625 3.75842 14.2017
            CHANNELS 6 Xposition Yposition Zposition Zrotation Xrotation Yrotation
            End Site
            {
              OFFSET 0 0 0
            }
          }
        }
      }
      JOINT stdjntLegUpRt
      {
        OFFSET 12.5099 -4.73889 1.12647
        CHANNELS 6 Xposition Yposition Zposition Zrotation Xrotation Yrotation
        JOINT stdjntLegLoRt
        {
          OFFSET 36.3873 -21.5344 9.96326
          CHANNELS 6 Xposition Yposition Zposition Zrotation Xrotation Yrotation
          JOINT stdjntLegEndRt
          {
            OFFSET 39.162 7.33561 -12.1002
            CHANNELS 6 Xposition Yposition Zposition Zrotation Xrotation Yrotation
            End Site
            {
              OFFSET 0 0 0
            }
          }
        }
      }
    }
  }
}
MOTION
Frames:	5
Frame Time:	0.0416667
-1.35379 153.253 5.9987 89.132 7.01671e-015 180 14.7781 1.0287 1.74589 87.157 0 6.17947e-031 -8.149 -0.622502 1.56 -56.4176 1.41245e-030 2.8249e-030 -10.1252 -25.3073 -1.02883 -14.9867 3.53113e-031 -0 -15.2056 -19.2365 -11.949 73.3792 7.01671e-015 180 7.92848 1.27426 2.17657 63.3645 7.01671e-015 180 -15.2948 -22.5615 -1.03921 -10.8266 7.06225e-031 -2.20695e-031 -7.0247 -27.9007 0.12471 74.191 -7.01671e-015 180 2.22921 -33.8077 0.960083 -47.5391 2.11868e-030 1.41245e-030 6.31117 -11.4237 0.777569 137.311 7.01671e-015 180 40.268 10.9431 12.0734 174.935 7.01671e-015 -180 38.6647 6.77348 13.8942 85.1627 -7.76416e-024 -2.68562e-006 12.5099 -4.73889 1.12647 127.343 7.01671e-015 -180 35.5863 -22.3816 10.9415 -9.53902 0 7.06225e-031 38.6393 8.3577 -13.0784 136.882 -7.01671e-015 -180 
-1.33047 153.605 5.99959 89.132 7.01671e-015 180 14.7772 1.04144 1.74638 87.157 0 6.17947e-031 -8.1485 -0.62899 1.56001 -56.4176 1.41245e-030 2.8249e-030 -10.1048 -25.3154 -1.02869 -14.9867 3.53113e-031 -0 -15.1898 -19.2488 -11.9493 73.3792 7.01671e-015 180 7.92746 1.28068 2.17653 63.3645 7.01671e-015 180 -15.4816 -22.4338 -1.03834 -10.8266 7.06225e-031 -2.20695e-031 -6.84138 -27.9462 0.125195 74.191 -7.01671e-015 180 2.23978 -33.8065 0.960489 -47.5391 2.11868e-030 1.41245e-030 6.31117 -11.4237 0.777569 137.311 7.01671e-015 180 40.4365 10.6718 11.7488 174.935 7.01671e-015 -180 38.8265 6.5004 13.5697 85.1627 -7.76416e-024 -2.68562e-006 12.5099 -4.73889 1.12647 127.343 7.01671e-015 -180 35.8255 -22.136 10.6566 -9.53902 0 7.06225e-031 38.7977 8.05959 -12.7935 136.882 -7.01671e-015 -180 
-1.31635 154.139 6.00013 89.132 7.01671e-015 180 14.7767 1.04915 1.74667 87.157 0 6.17947e-031 -8.14819 -0.632916 1.56001 -56.4176 1.41245e-030 2.8249e-030 -10.0925 -25.3203 -1.0286 -14.9867 3.53113e-031 -0 -15.1803 -19.2563 -11.9495 73.3792 7.01671e-015 180 7.92683 1.28457 2.17652 63.3645 7.01671e-015 180 -15.6064 -22.3472 -1.03772 -10.8266 7.06225e-031 -2.20695e-031 -6.84202 -27.9461 0.125193 74.191 -7.01671e-015 180 2.24617 -33.8057 0.960735 -47.5391 2.11868e-030 1.41245e-030 6.31117 -11.4237 0.777569 137.311 7.01671e-015 180 40.6907 10.2462 11.239 174.935 7.01671e-015 -180 39.0699 6.07225 13.0599 85.1627 -7.76416e-024 -2.68562e-006 12.5099 -4.73889 1.12647 127.343 7.01671e-015 -180 36.1908 -21.749 10.2098 -9.53902 0 7.06225e-031 39.0358 7.59286 -12.3468 136.882 -7.01671e-015 -180 
-1.31161 154.809 6.00032 89.132 7.01671e-015 180 14.7765 1.05174 1.74677 87.157 0 6.17947e-031 -8.14809 -0.634234 1.56002 -56.4176 1.41245e-030 2.8249e-030 -10.0884 -25.3219 -1.02858 -14.9867 3.53113e-031 -0 -15.1771 -19.2588 -11.9495 73.3792 7.01671e-015 180 7.92662 1.28588 2.17651 63.3645 7.01671e-015 180 -15.6519 -22.3154 -1.03748 -10.8266 7.06225e-031 -2.20695e-031 -6.94337 -27.9211 0.124919 74.191 -7.01671e-015 180 2.24832 -33.8055 0.960818 -47.5391 2.11868e-030 1.41245e-030 6.31117 -11.4237 0.777569 137.311 7.01671e-015 180 41.0087 9.6827 10.5626 174.935 7.01671e-015 -180 39.3729 5.50553 12.3834 85.1627 -7.76416e-024 -2.68562e-006 12.5099 -4.73889 1.12647 127.343 7.01671e-015 -180 36.6559 -21.2334 9.61866 -9.53902 0 7.06225e-031 39.3322 6.97651 -11.7556 136.882 -7.01671e-015 -180 
-1.34254 155.572 5.99913 89.132 7.01671e-015 180 14.7777 1.03485 1.74613 87.157 0 6.17947e-031 -8.14876 -0.625633 1.56 -56.4176 1.41245e-030 2.8249e-030 -10.1154 -25.3112 -1.02877 -14.9867 3.53113e-031 -0 -15.198 -19.2425 -11.9492 73.3792 7.01671e-015 180 7.92799 1.27736 2.17655 63.3645 7.01671e-015 180 -15.6078 -22.3462 -1.03771 -10.8266 7.06225e-031 -2.20695e-031 -7.01736 -27.9026 0.124729 74.191 -7.01671e-015 180 2.23431 -33.8071 0.960279 -47.5391 2.11868e-030 1.41245e-030 6.31117 -11.4237 0.777569 137.311 7.01671e-015 180 41.3685 8.99504 9.73512 174.935 7.01671e-015 -180 39.7136 4.81434 11.556 85.1627 -7.76416e-024 -2.68562e-006 12.5099 -4.73889 1.12647 127.343 7.01671e-015 -180 37.1953 -20.6 8.89843 -9.53902 0 7.06225e-031 39.6652 6.22753 -11.0354 136.882 -7.01671e-015 -180 
